<mxfile host="app.diagrams.net" agent="Mozilla/5.0 (Windows NT 10.0; Win64; x64) AppleWebKit/537.36 (KHTML, like Gecko) Chrome/127.0.0.0 Safari/537.36" version="24.7.5">
  <diagram name="第 1 页" id="-oXNje81ZLOxLUdFJSir">
    <mxGraphModel dx="1320" dy="2202" grid="1" gridSize="10" guides="0" tooltips="1" connect="1" arrows="1" fold="1" page="1" pageScale="1" pageWidth="827" pageHeight="1169" math="0" shadow="0">
      <root>
        <mxCell id="0" />
        <mxCell id="1" parent="0" />
        <mxCell id="rIM0MVLxEejWB8xpZyLr-70" value="" style="rounded=0;whiteSpace=wrap;html=1;" parent="1" vertex="1">
          <mxGeometry x="290" y="-90" width="860" height="750" as="geometry" />
        </mxCell>
        <mxCell id="rIM0MVLxEejWB8xpZyLr-3" value="" style="rounded=0;whiteSpace=wrap;html=1;shadow=0;sketch=1;curveFitting=1;jiggle=2;" parent="1" vertex="1">
          <mxGeometry x="340" y="20" width="200" height="600" as="geometry" />
        </mxCell>
        <mxCell id="rIM0MVLxEejWB8xpZyLr-4" value="" style="rounded=0;whiteSpace=wrap;html=1;shadow=0;sketch=1;curveFitting=1;jiggle=2;" parent="1" vertex="1">
          <mxGeometry x="620" y="20" width="200" height="600" as="geometry" />
        </mxCell>
        <mxCell id="rIM0MVLxEejWB8xpZyLr-5" value="" style="rounded=0;whiteSpace=wrap;html=1;shadow=0;sketch=1;curveFitting=1;jiggle=2;" parent="1" vertex="1">
          <mxGeometry x="890" y="290" width="200" height="330" as="geometry" />
        </mxCell>
        <mxCell id="rIM0MVLxEejWB8xpZyLr-43" style="edgeStyle=orthogonalEdgeStyle;rounded=0;orthogonalLoop=1;jettySize=auto;html=1;exitX=0.25;exitY=1;exitDx=0;exitDy=0;entryX=0.25;entryY=0;entryDx=0;entryDy=0;curved=1;dashed=1;shadow=0;sketch=1;curveFitting=1;jiggle=2;" parent="1" source="rIM0MVLxEejWB8xpZyLr-6" target="rIM0MVLxEejWB8xpZyLr-12" edge="1">
          <mxGeometry relative="1" as="geometry" />
        </mxCell>
        <mxCell id="rIM0MVLxEejWB8xpZyLr-44" style="edgeStyle=orthogonalEdgeStyle;rounded=0;orthogonalLoop=1;jettySize=auto;html=1;entryX=0.25;entryY=0;entryDx=0;entryDy=0;curved=1;dashed=1;shadow=0;sketch=1;curveFitting=1;jiggle=2;" parent="1" source="rIM0MVLxEejWB8xpZyLr-6" target="rIM0MVLxEejWB8xpZyLr-14" edge="1">
          <mxGeometry relative="1" as="geometry">
            <Array as="points">
              <mxPoint x="440" y="260" />
              <mxPoint x="700" y="260" />
            </Array>
          </mxGeometry>
        </mxCell>
        <mxCell id="rIM0MVLxEejWB8xpZyLr-45" style="edgeStyle=orthogonalEdgeStyle;rounded=0;orthogonalLoop=1;jettySize=auto;html=1;exitX=0.75;exitY=1;exitDx=0;exitDy=0;entryX=0.25;entryY=0;entryDx=0;entryDy=0;curved=1;dashed=1;shadow=0;sketch=1;curveFitting=1;jiggle=2;" parent="1" source="rIM0MVLxEejWB8xpZyLr-6" target="rIM0MVLxEejWB8xpZyLr-15" edge="1">
          <mxGeometry relative="1" as="geometry">
            <Array as="points">
              <mxPoint x="470" y="250" />
              <mxPoint x="967" y="250" />
            </Array>
          </mxGeometry>
        </mxCell>
        <mxCell id="rIM0MVLxEejWB8xpZyLr-6" value="nginx-4层负载" style="rounded=0;whiteSpace=wrap;html=1;shadow=0;sketch=1;curveFitting=1;jiggle=2;" parent="1" vertex="1">
          <mxGeometry x="380" y="160" width="120" height="60" as="geometry" />
        </mxCell>
        <mxCell id="rIM0MVLxEejWB8xpZyLr-40" style="edgeStyle=orthogonalEdgeStyle;rounded=0;orthogonalLoop=1;jettySize=auto;html=1;exitX=0.25;exitY=1;exitDx=0;exitDy=0;curved=1;dashed=1;shadow=0;sketch=1;curveFitting=1;jiggle=2;" parent="1" source="rIM0MVLxEejWB8xpZyLr-7" target="rIM0MVLxEejWB8xpZyLr-12" edge="1">
          <mxGeometry relative="1" as="geometry" />
        </mxCell>
        <mxCell id="rIM0MVLxEejWB8xpZyLr-41" style="edgeStyle=orthogonalEdgeStyle;rounded=0;orthogonalLoop=1;jettySize=auto;html=1;curved=1;dashed=1;shadow=0;sketch=1;curveFitting=1;jiggle=2;" parent="1" source="rIM0MVLxEejWB8xpZyLr-7" target="rIM0MVLxEejWB8xpZyLr-14" edge="1">
          <mxGeometry relative="1" as="geometry" />
        </mxCell>
        <mxCell id="rIM0MVLxEejWB8xpZyLr-42" style="edgeStyle=orthogonalEdgeStyle;rounded=0;orthogonalLoop=1;jettySize=auto;html=1;exitX=0.75;exitY=1;exitDx=0;exitDy=0;curved=1;dashed=1;shadow=0;sketch=1;curveFitting=1;jiggle=2;" parent="1" source="rIM0MVLxEejWB8xpZyLr-7" target="rIM0MVLxEejWB8xpZyLr-15" edge="1">
          <mxGeometry relative="1" as="geometry">
            <Array as="points">
              <mxPoint x="750" y="285" />
              <mxPoint x="987" y="285" />
            </Array>
          </mxGeometry>
        </mxCell>
        <mxCell id="rIM0MVLxEejWB8xpZyLr-7" value="nginx-4层负载" style="rounded=0;whiteSpace=wrap;html=1;shadow=0;sketch=1;curveFitting=1;jiggle=2;" parent="1" vertex="1">
          <mxGeometry x="660" y="160" width="120" height="60" as="geometry" />
        </mxCell>
        <mxCell id="rIM0MVLxEejWB8xpZyLr-9" value="K8s" style="rounded=0;whiteSpace=wrap;html=1;shadow=0;sketch=1;curveFitting=1;jiggle=2;" parent="1" vertex="1">
          <mxGeometry x="380" y="370" width="120" height="220" as="geometry" />
        </mxCell>
        <mxCell id="rIM0MVLxEejWB8xpZyLr-10" value="K8s" style="rounded=0;whiteSpace=wrap;html=1;shadow=0;sketch=1;curveFitting=1;jiggle=2;" parent="1" vertex="1">
          <mxGeometry x="660" y="370" width="120" height="220" as="geometry" />
        </mxCell>
        <mxCell id="rIM0MVLxEejWB8xpZyLr-11" value="K8s" style="rounded=0;whiteSpace=wrap;html=1;shadow=0;sketch=1;curveFitting=1;jiggle=2;" parent="1" vertex="1">
          <mxGeometry x="927" y="370" width="120" height="220" as="geometry" />
        </mxCell>
        <mxCell id="rIM0MVLxEejWB8xpZyLr-12" value="6443" style="rounded=0;whiteSpace=wrap;html=1;shadow=0;sketch=1;curveFitting=1;jiggle=2;" parent="1" vertex="1">
          <mxGeometry x="400" y="350" width="80" height="40" as="geometry" />
        </mxCell>
        <mxCell id="rIM0MVLxEejWB8xpZyLr-15" value="6443" style="rounded=0;whiteSpace=wrap;html=1;shadow=0;sketch=1;curveFitting=1;jiggle=2;" parent="1" vertex="1">
          <mxGeometry x="947" y="350" width="80" height="40" as="geometry" />
        </mxCell>
        <mxCell id="rIM0MVLxEejWB8xpZyLr-14" value="6443" style="rounded=0;whiteSpace=wrap;html=1;shadow=0;sketch=1;curveFitting=1;jiggle=2;" parent="1" vertex="1">
          <mxGeometry x="680" y="350" width="80" height="40" as="geometry" />
        </mxCell>
        <mxCell id="rIM0MVLxEejWB8xpZyLr-46" value="keepalived" style="rounded=0;whiteSpace=wrap;html=1;shadow=0;sketch=1;curveFitting=1;jiggle=2;" parent="1" vertex="1">
          <mxGeometry x="380" y="50" width="120" height="60" as="geometry" />
        </mxCell>
        <mxCell id="hNR7hh7qBcAarSvVSCTu-2" style="edgeStyle=orthogonalEdgeStyle;rounded=0;orthogonalLoop=1;jettySize=auto;html=1;sketch=1;curveFitting=1;jiggle=2;" edge="1" parent="1" source="rIM0MVLxEejWB8xpZyLr-47" target="rIM0MVLxEejWB8xpZyLr-56">
          <mxGeometry relative="1" as="geometry" />
        </mxCell>
        <mxCell id="rIM0MVLxEejWB8xpZyLr-47" value="keepalived" style="rounded=0;whiteSpace=wrap;html=1;shadow=0;sketch=1;curveFitting=1;jiggle=2;" parent="1" vertex="1">
          <mxGeometry x="660" y="50" width="120" height="60" as="geometry" />
        </mxCell>
        <mxCell id="rIM0MVLxEejWB8xpZyLr-48" value="" style="endArrow=none;dashed=1;html=1;rounded=0;entryX=0;entryY=0.5;entryDx=0;entryDy=0;exitX=1;exitY=0.5;exitDx=0;exitDy=0;shadow=0;sketch=1;curveFitting=1;jiggle=2;" parent="1" source="rIM0MVLxEejWB8xpZyLr-50" target="rIM0MVLxEejWB8xpZyLr-47" edge="1">
          <mxGeometry width="50" height="50" relative="1" as="geometry">
            <mxPoint x="610" y="200" as="sourcePoint" />
            <mxPoint x="660" y="150" as="targetPoint" />
            <Array as="points">
              <mxPoint x="630" y="80" />
            </Array>
          </mxGeometry>
        </mxCell>
        <mxCell id="rIM0MVLxEejWB8xpZyLr-49" value="" style="endArrow=none;dashed=1;html=1;rounded=0;entryX=0;entryY=0.5;entryDx=0;entryDy=0;exitX=1;exitY=0.5;exitDx=0;exitDy=0;shadow=0;sketch=1;curveFitting=1;jiggle=2;" parent="1" source="rIM0MVLxEejWB8xpZyLr-46" target="rIM0MVLxEejWB8xpZyLr-50" edge="1">
          <mxGeometry width="50" height="50" relative="1" as="geometry">
            <mxPoint x="500" y="80" as="sourcePoint" />
            <mxPoint x="660" y="80" as="targetPoint" />
            <Array as="points" />
          </mxGeometry>
        </mxCell>
        <mxCell id="rIM0MVLxEejWB8xpZyLr-50" value="" style="html=1;verticalLabelPosition=bottom;align=center;labelBackgroundColor=#ffffff;verticalAlign=top;strokeWidth=2;strokeColor=#b85450;shadow=0;dashed=0;shape=mxgraph.ios7.icons.heart;fillColor=#f8cecc;sketch=1;curveFitting=1;jiggle=2;" parent="1" vertex="1">
          <mxGeometry x="554.7" y="66.35" width="30.599999999999998" height="27.3" as="geometry" />
        </mxCell>
        <mxCell id="rIM0MVLxEejWB8xpZyLr-55" value="16443" style="rounded=0;whiteSpace=wrap;html=1;shadow=0;sketch=1;curveFitting=1;jiggle=2;" parent="1" vertex="1">
          <mxGeometry x="390" y="140" width="90" height="30" as="geometry" />
        </mxCell>
        <mxCell id="rIM0MVLxEejWB8xpZyLr-56" value="16443" style="rounded=0;whiteSpace=wrap;html=1;shadow=0;sketch=1;curveFitting=1;jiggle=2;" parent="1" vertex="1">
          <mxGeometry x="670" y="150" width="90" height="30" as="geometry" />
        </mxCell>
        <mxCell id="hNR7hh7qBcAarSvVSCTu-3" style="edgeStyle=orthogonalEdgeStyle;rounded=0;orthogonalLoop=1;jettySize=auto;html=1;exitX=0.5;exitY=1;exitDx=0;exitDy=0;sketch=1;curveFitting=1;jiggle=2;" edge="1" parent="1" source="rIM0MVLxEejWB8xpZyLr-52" target="rIM0MVLxEejWB8xpZyLr-50">
          <mxGeometry relative="1" as="geometry" />
        </mxCell>
        <mxCell id="rIM0MVLxEejWB8xpZyLr-52" value="&lt;div&gt;Port: 16443&lt;/div&gt;" style="rounded=0;whiteSpace=wrap;html=1;shadow=0;sketch=1;curveFitting=1;jiggle=2;" parent="1" vertex="1">
          <mxGeometry x="340" y="-40" width="480" height="60" as="geometry" />
        </mxCell>
        <mxCell id="rIM0MVLxEejWB8xpZyLr-65" style="edgeStyle=orthogonalEdgeStyle;rounded=0;orthogonalLoop=1;jettySize=auto;html=1;shadow=0;sketch=1;curveFitting=1;jiggle=2;" parent="1" source="rIM0MVLxEejWB8xpZyLr-62" target="rIM0MVLxEejWB8xpZyLr-63" edge="1">
          <mxGeometry relative="1" as="geometry" />
        </mxCell>
        <mxCell id="rIM0MVLxEejWB8xpZyLr-62" value="Actor" style="shape=umlActor;verticalLabelPosition=bottom;verticalAlign=top;html=1;outlineConnect=0;shadow=0;sketch=1;curveFitting=1;jiggle=2;" parent="1" vertex="1">
          <mxGeometry x="950" y="110" width="30" height="60" as="geometry" />
        </mxCell>
        <mxCell id="rIM0MVLxEejWB8xpZyLr-64" style="edgeStyle=orthogonalEdgeStyle;rounded=0;orthogonalLoop=1;jettySize=auto;html=1;entryX=1;entryY=0.5;entryDx=0;entryDy=0;shadow=0;sketch=1;curveFitting=1;jiggle=2;" parent="1" source="rIM0MVLxEejWB8xpZyLr-63" target="rIM0MVLxEejWB8xpZyLr-52" edge="1">
          <mxGeometry relative="1" as="geometry" />
        </mxCell>
        <mxCell id="rIM0MVLxEejWB8xpZyLr-63" value="kubectl" style="rounded=0;whiteSpace=wrap;html=1;shadow=0;sketch=1;curveFitting=1;jiggle=2;" parent="1" vertex="1">
          <mxGeometry x="930" y="-20" width="110" height="30" as="geometry" />
        </mxCell>
        <mxCell id="rIM0MVLxEejWB8xpZyLr-66" value="VIP:192.16.100.131" style="text;html=1;align=center;verticalAlign=middle;whiteSpace=wrap;rounded=0;shadow=0;sketch=1;curveFitting=1;jiggle=2;" parent="1" vertex="1">
          <mxGeometry x="350" y="-30" width="120" height="30" as="geometry" />
        </mxCell>
        <mxCell id="rIM0MVLxEejWB8xpZyLr-67" value="MASTER1:192.16.100.128" style="text;html=1;align=center;verticalAlign=middle;whiteSpace=wrap;rounded=0;shadow=0;sketch=1;curveFitting=1;jiggle=2;" parent="1" vertex="1">
          <mxGeometry x="370" y="590" width="150" height="30" as="geometry" />
        </mxCell>
        <mxCell id="rIM0MVLxEejWB8xpZyLr-68" value="MASTER2:192.16.100.129" style="text;html=1;align=center;verticalAlign=middle;whiteSpace=wrap;rounded=0;shadow=0;sketch=1;curveFitting=1;jiggle=2;" parent="1" vertex="1">
          <mxGeometry x="650" y="590" width="150" height="30" as="geometry" />
        </mxCell>
        <mxCell id="rIM0MVLxEejWB8xpZyLr-69" value="MASTER3:192.16.100.130" style="text;html=1;align=center;verticalAlign=middle;whiteSpace=wrap;rounded=0;shadow=0;sketch=1;curveFitting=1;jiggle=2;" parent="1" vertex="1">
          <mxGeometry x="910" y="590" width="150" height="30" as="geometry" />
        </mxCell>
        <mxCell id="rIM0MVLxEejWB8xpZyLr-72" value="&lt;b&gt;&lt;font style=&quot;font-size: 18px;&quot;&gt;本文架构&lt;/font&gt;&lt;/b&gt;" style="text;html=1;align=center;verticalAlign=middle;whiteSpace=wrap;rounded=0;" parent="1" vertex="1">
          <mxGeometry x="300" y="-80" width="80" height="30" as="geometry" />
        </mxCell>
        <mxCell id="hNR7hh7qBcAarSvVSCTu-1" style="edgeStyle=orthogonalEdgeStyle;rounded=0;orthogonalLoop=1;jettySize=auto;html=1;entryX=0.565;entryY=0.072;entryDx=0;entryDy=0;entryPerimeter=0;sketch=1;curveFitting=1;jiggle=2;" edge="1" parent="1" source="rIM0MVLxEejWB8xpZyLr-46" target="rIM0MVLxEejWB8xpZyLr-55">
          <mxGeometry relative="1" as="geometry" />
        </mxCell>
      </root>
    </mxGraphModel>
  </diagram>
</mxfile>
